HIERARCHY
ROOT Hips
{
	OFFSET -0.001795 -0.223333 0.028219
	CHANNELS 6 Xposition Yposition Zposition Zrotation Yrotation Xrotation 
	JOINT LeftUpLeg
	{
		OFFSET 0.069520 -0.091406 -0.006815
		CHANNELS 3 Zrotation Yrotation Xrotation
		JOINT LeftLeg
		{
			OFFSET 0.034277 -0.375199 -0.004496
			CHANNELS 3 Zrotation Yrotation Xrotation
			JOINT LeftFoot
			{
				OFFSET -0.013596 -0.397961 -0.043693
				CHANNELS 3 Zrotation Yrotation Xrotation
				JOINT LeftToe
				{
					OFFSET 0.026358 -0.055791 0.119288
					CHANNELS 3 Zrotation Yrotation Xrotation
					End Site
					{
						OFFSET 0.000000 0.000000 0.000000
					}
				}
			}
		}
	}
	JOINT RightUpLeg
	{
		OFFSET -0.067670 -0.090522 -0.004320
		CHANNELS 3 Zrotation Yrotation Xrotation
		JOINT RightLeg
		{
			OFFSET -0.038290 -0.382569 -0.008850
			CHANNELS 3 Zrotation Yrotation Xrotation
			JOINT RightFoot
			{
				OFFSET 0.015774 -0.398415 -0.042312
				CHANNELS 3 Zrotation Yrotation Xrotation
				JOINT RightToe
				{
					OFFSET -0.025372 -0.048144 0.123348
					CHANNELS 3 Zrotation Yrotation Xrotation
					End Site
					{
						OFFSET 0.000000 0.000000 0.000000
					}
				}
			}
		}
	}
	JOINT Spine
	{
		OFFSET -0.002533 0.108963 -0.026696
		CHANNELS 3 Zrotation Yrotation Xrotation
		JOINT Spine1
		{
			OFFSET 0.005487 0.135180 0.001092
			CHANNELS 3 Zrotation Yrotation Xrotation
			JOINT Spine2
			{
				OFFSET 0.001457 0.052922 0.025425
				CHANNELS 3 Zrotation Yrotation Xrotation
				JOINT Neck
				{
					OFFSET -0.002778 0.213870 -0.042857
					CHANNELS 3 Zrotation Yrotation Xrotation
					JOINT Head
					{
						OFFSET 0.005152 0.064970 0.051349
						CHANNELS 3 Zrotation Yrotation Xrotation
						End Site
						{
							OFFSET 0.000000 0.000000 0.000000
						}
					}
				}
				JOINT LeftShoulder
				{
					OFFSET 0.078845 0.121749 -0.034090
					CHANNELS 3 Zrotation Yrotation Xrotation
					JOINT LeftArm
					{
						OFFSET 0.090977 0.030469 -0.008868
						CHANNELS 3 Zrotation Yrotation Xrotation
						JOINT LeftForeArm
						{
							OFFSET 0.259612 -0.012772 -0.027456
							CHANNELS 3 Zrotation Yrotation Xrotation
							JOINT LeftHand
							{
								OFFSET 0.249234 0.008986 -0.001171
								CHANNELS 3 Zrotation Yrotation Xrotation
								End Site
								{
									OFFSET 0.000000 0.000000 0.000000
								}
							}
						}
					}
				}
				JOINT RightShoulder
				{
					OFFSET -0.081759 0.118833 -0.038615
					CHANNELS 3 Zrotation Yrotation Xrotation
					JOINT RightArm
					{
						OFFSET -0.096012 0.032551 -0.009143
						CHANNELS 3 Zrotation Yrotation Xrotation
						JOINT RightForeArm
						{
							OFFSET -0.253742 -0.013329 -0.021401
							CHANNELS 3 Zrotation Yrotation Xrotation
							JOINT RightHand
							{
								OFFSET -0.255298 0.007772 -0.005559
								CHANNELS 3 Zrotation Yrotation Xrotation
								End Site
								{
									OFFSET 0.000000 0.000000 0.000000
								}
							}
						}
					}
				}
			}
		}
	}
}
MOTION
Frames: 7
Frame Time: 0.050000
0.000000 0.917541 0.000000 -1.227588 33.522778 -3.430076 -1.885213 0.346899 12.384727 -0.359022 -1.268218 14.761981 1.131729 4.211488 3.431781 0.000000 0.000000 0.000000 1.165233 0.393345 -27.562673 0.957469 -0.640352 12.149179 -8.641818 -14.099984 27.808834 0.000000 0.000000 0.000000 6.200324 -1.411940 11.027529 -8.366117 3.309251 -21.872391 -2.959177 -7.821136 21.349328 10.047732 -4.320698 -16.302620 0.000000 0.000000 0.000000 -16.201602 -10.669781 1.182083 -41.162713 -21.218040 1.016604 38.784551 -54.942467 -20.889807 0.000000 0.000000 0.000000 25.693703 -6.366331 -1.091912 55.930564 2.152387 -7.364485 -6.739093 30.550969 0.958498 0.000000 0.000000 0.000000 
0.023847 0.917117 0.051737 -0.997953 30.199539 -3.576082 -0.675542 0.293700 11.578524 -3.957782 -1.581397 23.087864 -0.753809 5.447431 10.686219 0.000000 0.000000 0.000000 1.424159 0.809211 -26.900510 3.969356 -1.828611 16.030635 -11.905165 -19.719752 26.530955 0.000000 0.000000 0.000000 8.515654 -1.375774 9.140462 -10.979109 3.660463 -22.888125 -2.360127 -7.774889 22.298525 8.609242 -3.847939 -15.136177 0.000000 0.000000 0.000000 -15.132019 -11.274414 2.201481 -41.529225 -25.105306 1.906640 46.466802 -53.784765 -24.027084 0.000000 0.000000 0.000000 25.249338 -8.241472 -3.024635 57.370718 -0.314821 -8.480581 -4.443795 28.205756 1.255892 0.000000 0.000000 0.000000 
0.045731 0.919434 0.099457 -0.970381 24.445777 -3.782902 1.325424 0.178589 7.827407 -10.743499 -0.401263 33.197513 -1.508458 8.732661 23.311021 0.000000 0.000000 0.000000 3.699647 1.881083 -26.061246 3.681859 -1.892044 20.365698 -11.880412 -21.581080 22.212779 0.000000 0.000000 0.000000 9.921216 -1.405539 8.684831 -11.725400 3.355370 -26.356620 -1.783819 -5.522784 25.899095 6.459704 -1.981103 -17.642383 0.000000 0.000000 0.000000 -13.087421 -11.909536 3.026042 -37.672820 -28.302495 2.083395 44.537141 -51.849464 -21.672543 0.000000 0.000000 0.000000 22.612098 -7.636787 -2.801050 57.265291 -1.764022 -9.247764 -0.487449 27.809268 2.024951 0.000000 0.000000 0.000000 
0.064245 0.925962 0.140768 -1.111803 20.385355 -5.063304 3.412635 -0.030730 4.178333 -16.640438 1.842110 42.196003 0.867750 12.341926 30.687093 0.000000 0.000000 0.000000 5.744021 2.498751 -22.827438 3.322564 -1.570332 20.973889 -14.020232 -25.435303 22.609864 0.000000 0.000000 0.000000 10.804201 -1.403662 8.558164 -11.306295 3.298210 -26.372037 -1.799624 -4.844542 25.715476 6.620602 -2.513729 -16.634168 0.000000 0.000000 0.000000 -10.820454 -12.587629 3.772597 -36.034051 -33.795232 3.328801 44.644416 -47.096974 -19.129594 0.000000 0.000000 0.000000 22.527063 -7.052060 -2.926996 56.734681 -2.571027 -9.506435 1.322924 28.788110 2.425600 0.000000 0.000000 0.000000 
0.079549 0.935481 0.176380 -0.771503 16.321385 -5.858621 4.239174 -0.139473 0.577141 -18.896547 3.796275 46.719913 4.077401 15.366136 31.951880 0.000000 0.000000 0.000000 6.030747 2.413938 -18.711385 3.608432 -1.296945 19.731431 -12.626150 -24.235635 21.441611 0.000000 0.000000 0.000000 10.308020 -1.540609 10.313588 -9.649097 2.900644 -27.681797 -2.293296 -4.393809 25.789661 7.225258 -3.609819 -15.032486 0.000000 0.000000 0.000000 -8.403666 -15.213576 5.221508 -29.775777 -38.533627 3.263659 45.658856 -38.134635 -15.343069 0.000000 0.000000 0.000000 23.470989 -6.286574 -3.097894 54.926867 -3.557350 -9.764005 1.113030 29.337202 2.268456 0.000000 0.000000 0.000000 
0.092471 0.946508 0.206840 0.250311 11.585302 -5.859578 3.948476 -0.263954 -3.121092 -17.308013 4.435675 47.809025 5.807161 16.204891 25.123901 0.000000 0.000000 0.000000 5.252598 2.081205 -15.607728 3.127585 -0.756789 18.292736 -9.204938 -19.774444 21.317392 0.000000 0.000000 0.000000 9.804006 -1.452097 10.707429 -8.784348 2.716162 -27.927077 -2.363028 -4.798549 25.150026 5.046330 -2.787185 -12.838660 0.000000 0.000000 0.000000 -6.361429 -15.448605 5.621924 -22.994699 -42.633182 2.565993 43.648274 -29.716687 -10.811359 0.000000 0.000000 0.000000 23.627644 -5.012002 -3.426304 53.684796 -4.255000 -9.646980 -0.305735 29.648879 1.665879 0.000000 0.000000 0.000000 
0.103010 0.955471 0.233055 0.963174 6.749818 -5.782455 3.504022 -0.426747 -6.158765 -13.635044 3.888473 46.398684 7.632785 17.461799 16.594287 0.000000 0.000000 0.000000 5.124909 1.789290 -12.929128 2.163366 -0.184838 16.690822 -6.386345 -16.257078 20.863790 0.000000 0.000000 0.000000 9.205890 -1.285412 10.528787 -7.939289 2.489790 -28.389896 -2.162840 -4.378231 25.799674 4.262975 -2.531773 -13.114582 0.000000 0.000000 0.000000 -3.946978 -16.675058 6.103750 -14.274752 -45.429375 0.605261 41.128462 -21.079029 -6.919228 0.000000 0.000000 0.000000 23.344339 -4.346586 -3.787341 54.357774 -4.189089 -9.702306 -0.672305 30.058873 1.443187 0.000000 0.000000 0.000000 
